<?xml version="1.0" encoding="utf-8"?>
<!-- Generator: Adobe Illustrator 24.3.0, SVG Export Plug-In . SVG Version: 6.00 Build 0)  -->
<svg version="1.1" id="Layer_1" xmlns="http://www.w3.org/2000/svg" xmlns:xlink="http://www.w3.org/1999/xlink" x="0px" y="0px"
	 viewBox="0 0 255.7 43.6" style="enable-background:new 0 0 255.7 43.6;" xml:space="preserve">
<style type="text/css">
	.st0{fill:#E4891E;}
	.st1{fill:#E28415;stroke:#E28415;stroke-width:0.69;stroke-miterlimit:10;}
	.st2{enable-background:new    ;}
	.st3{fill:#FFFFFF;}
</style>
<path class="st0" d="M4.1,27.4l-3,11.8h2.3l0.7-3h2.8l0.8,3h2.4L7,27.4H4.1z M4.4,34.1L5,31.6c0.2-0.7,0.3-1.6,0.5-2.3l0,0
	c0.1,0.7,0.3,1.6,0.5,2.3l0.6,2.5H4.4z"/>
<polygon class="st0" points="13.7,27.4 11.4,27.4 11.4,39.1 17.6,39.1 17.6,36.9 13.7,36.9 "/>
<path class="st0" d="M29.9,27.4h-2.8l-2.2,3.9c-0.2,0.4-0.5,0.8-0.7,1.3l0,0v-5.2h-2.2v11.8h2.2v-3.8L25,34l2.4,5.1h2.6l-3.5-6.8
	L29.9,27.4z"/>
<path class="st0" d="M33.5,27.4l-3,11.8h2.3l0.7-3h2.8l0.8,3h2.4l-3.1-11.8H33.5z M33.8,34.1l0.6-2.5c0.2-0.7,0.3-1.6,0.5-2.3l0,0
	c0.1,0.7,0.3,1.6,0.5,2.3l0.6,2.5H33.8z"/>
<path class="st0" d="M47.9,28.5c-1.1-0.9-2.6-1.4-4.1-1.3c-1,0-2,0.1-3,0.2v11.6c0.8,0.1,1.7,0.2,2.5,0.2c1.7,0.1,3.3-0.4,4.6-1.5
	c1.2-1.3,1.7-3,1.6-4.8C49.7,31.3,49.1,29.7,47.9,28.5z M43.8,37.2c-0.3,0-0.5,0-0.8,0v-7.7c0.3-0.1,0.7-0.1,1-0.1
	c1.9,0,3.1,1.3,3.1,3.7C47.2,35.8,45.9,37.2,43.8,37.2z"/>
<rect x="51" y="27.4" class="st0" width="2.2" height="11.8"/>
<path class="st0" d="M60.6,33.6L60.6,33.6c1.1-0.6,1.8-1.7,1.8-3c0.1-0.9-0.3-1.8-0.9-2.5c-0.9-0.7-2.1-1-3.2-0.9c-1,0-2,0.1-3,0.2
	v11.6h2.2v-4.6h0.7c0.9,0,1.3,0.4,1.6,1.9c0.2,0.9,0.4,1.8,0.7,2.7h2.3c-0.2-0.4-0.5-2-0.8-3.3C61.8,34.9,61.3,34.1,60.6,33.6z
	 M58.3,32.6h-0.9v-3.2c0.3-0.1,0.7-0.1,1-0.1c0.8-0.1,1.6,0.5,1.6,1.3c0,0.1,0,0.2,0,0.3c0,0.9-0.7,1.6-1.6,1.7
	C58.5,32.6,58.4,32.6,58.3,32.6L58.3,32.6z"/>
<path class="st0" d="M74.2,27.4l-1.1,3.9c-0.3,1.3-0.7,2.9-1,4.2l0,0c-0.2-1.4-0.5-2.8-0.8-4.2l-1-3.9h-3l-0.6,11.8h2.1l0.2-4.5
	c0.1-1.5,0.1-3.3,0.2-4.9l0,0c0.2,1.5,0.6,3.2,0.9,4.6l1.1,4.6h1.8l1.2-4.6c0.4-1.4,0.8-3,1.1-4.6l0,0c0,1.7,0.1,3.4,0.1,4.8
	l0.1,4.5h2.2L77,27.4L74.2,27.4z"/>
<path class="st0" d="M81.7,27.4l-3,11.8H81l0.7-3h2.8l0.8,3h2.4l-3.1-11.8H81.7z M82,34.1l0.6-2.5c0.2-0.7,0.3-1.6,0.4-2.3l0,0
	c0.1,0.7,0.3,1.6,0.5,2.3l0.6,2.5H82z"/>
<path class="st0" d="M95.2,30.8c0,1.8,0,3.3,0.2,4.9h-0.1c-0.5-1.4-1-2.7-1.6-4l-2.1-4.3H89v11.8h2.1v-3.5c0-1.9,0-3.6-0.1-5.1l0,0
	c0.5,1.4,1.1,2.9,1.7,4.2l2.1,4.5h2.4V27.4h-2.1L95.2,30.8z"/>
<path class="st0" d="M102.2,27.3c-1,0-2,0.1-3,0.2v11.6h2.2v-4.2c0.3,0,0.5,0.1,0.8,0.1c2,0.2,3.9-1.2,4.1-3.3c0-0.2,0-0.5,0-0.7
	c0-1-0.4-2-1.1-2.7C104.4,27.5,103.3,27.2,102.2,27.3z M102.1,32.9c-0.3,0-0.5,0-0.8-0.1v-3.5c0.3-0.1,0.6-0.1,0.9-0.1
	c0.9-0.1,1.6,0.5,1.7,1.4c0,0.1,0,0.2,0,0.3c0.1,1-0.6,1.8-1.6,1.9C102.4,33,102.3,33,102.1,32.9L102.1,32.9z"/>
<path class="st0" d="M112.1,27.2c-2.9,0-4.8,2.6-4.8,6.2c0,3.3,1.7,6,4.7,6s4.9-2.3,4.9-6.2C116.8,29.9,115.2,27.2,112.1,27.2z
	 M112.1,37.2c-1.5,0-2.4-1.6-2.4-3.9s0.9-4,2.4-4s2.4,1.8,2.4,3.9C114.5,35.5,113.6,37.2,112.1,37.2L112.1,37.2z"/>
<path class="st0" d="M127,32.2c-0.2,1.4-0.4,2.8-0.6,4.1l0,0c-0.1-1.3-0.3-2.6-0.5-3.9l-0.8-5h-2.4l-0.8,4.8
	c-0.2,1.4-0.5,2.9-0.6,4.1l0,0c-0.2-1.2-0.4-2.7-0.6-4.1l-0.8-4.8h-2.4l2.4,11.8h2.4l0.9-5.1c0.2-1.2,0.4-2.3,0.6-3.6l0,0
	c0.1,1.3,0.3,2.4,0.5,3.6l0.8,5.1h2.4l2.6-11.8h-2.3L127,32.2z"/>
<polygon class="st0" points="133.5,34.1 137.2,34.1 137.2,32 133.5,32 133.5,29.5 137.4,29.5 137.4,27.4 131.3,27.4 131.3,39.1 
	137.6,39.1 137.6,36.9 133.5,36.9 "/>
<path class="st0" d="M144.5,33.6L144.5,33.6c1.1-0.6,1.8-1.7,1.8-3c0.1-0.9-0.3-1.8-0.9-2.5c-0.9-0.7-2.1-1-3.2-0.9
	c-1,0-2,0.1-3,0.2v11.6h2.2v-4.6h0.7c0.9,0,1.3,0.4,1.6,1.9c0.2,0.9,0.4,1.8,0.7,2.7h2.3c-0.3-1.1-0.6-2.2-0.8-3.3
	C145.7,34.9,145.2,34.1,144.5,33.6z M142.2,32.6h-0.9v-3.2c0.3-0.1,0.7-0.1,1-0.1c0.8-0.1,1.6,0.5,1.6,1.3c0,0.1,0,0.2,0,0.3
	c0,0.9-0.7,1.6-1.6,1.7C142.4,32.6,142.3,32.6,142.2,32.6L142.2,32.6z"/>
<path class="st0" d="M154.7,32.1c-1.3-0.6-1.8-0.9-1.8-1.7s0.5-1.1,1.5-1.1c0.7,0,1.4,0.2,2.1,0.6l0.5-2.1c-0.8-0.4-1.7-0.6-2.5-0.6
	c-1.9-0.2-3.6,1.3-3.7,3.2c0,0.1,0,0.3,0,0.4c0,1.7,1.1,2.8,2.7,3.5c1.2,0.5,1.7,0.9,1.7,1.7s-0.5,1.3-1.6,1.3
	c-0.9,0-1.7-0.3-2.5-0.7l-0.5,2.2c0.9,0.5,1.8,0.7,2.8,0.7c2.7,0,4-1.7,4-3.6C157.3,33.9,156.5,32.9,154.7,32.1z"/>
<polygon class="st0" points="161,34.1 164.7,34.1 164.7,32 161,32 161,29.5 164.9,29.5 164.9,27.4 158.8,27.4 158.8,39.1 
	165.1,39.1 165.1,36.9 161,36.9 "/>
<path class="st0" d="M172,33.6L172,33.6c1.1-0.6,1.8-1.7,1.8-3c0.1-0.9-0.3-1.8-0.9-2.5c-0.9-0.7-2.1-1-3.2-0.9c-1,0-2,0.1-3,0.2
	v11.6h2.2v-4.6h0.7c0.9,0,1.3,0.4,1.6,1.9c0.2,0.9,0.4,1.8,0.7,2.7h2.3c-0.3-1.1-0.6-2.2-0.8-3.3C173.2,34.9,172.8,34.1,172,33.6z
	 M169.8,32.6h-0.9v-3.2c0.3-0.1,0.7-0.1,1-0.1c0.8-0.1,1.6,0.5,1.6,1.3c0,0.1,0,0.2,0,0.3c0,0.9-0.7,1.6-1.6,1.7
	C169.9,32.6,169.8,32.6,169.8,32.6L169.8,32.6z"/>
<path class="st0" d="M179.9,32.4c-0.3,1.3-0.6,2.7-0.9,4.2h0c-0.2-1.5-0.5-2.8-0.9-4.2l-1.2-5h-2.4l3.2,11.8h2.6l3.3-11.8h-2.4
	L179.9,32.4z"/>
<rect x="184.7" y="27.4" class="st0" width="2.2" height="11.8"/>
<path class="st0" d="M193.9,29.4c0.7,0,1.3,0.1,1.9,0.4l0.5-2.1c-0.8-0.4-1.6-0.6-2.4-0.5c-3,0-5.4,2.2-5.4,6.2
	c0,3.3,1.8,5.9,5.2,5.9c0.9,0,1.7-0.1,2.5-0.5l-0.3-2.1c-0.6,0.3-1.2,0.4-1.9,0.4c-2,0-3.2-1.5-3.2-3.8
	C190.7,30.6,192.1,29.4,193.9,29.4z"/>
<polygon class="st0" points="199.9,34.1 203.5,34.1 203.5,32 199.9,32 199.9,29.5 203.7,29.5 203.7,27.4 197.6,27.4 197.6,39.1 
	203.9,39.1 203.9,36.9 199.9,36.9 "/>
<path class="st0" d="M209.3,32.1c-1.3-0.6-1.8-0.9-1.8-1.7s0.5-1.1,1.4-1.1c0.7,0,1.4,0.2,2.1,0.6l0.5-2.1c-0.8-0.4-1.7-0.6-2.5-0.6
	c-1.9-0.2-3.6,1.3-3.7,3.2c0,0.1,0,0.3,0,0.4c0,1.7,1.1,2.8,2.7,3.5c1.2,0.5,1.7,0.9,1.7,1.7s-0.5,1.3-1.6,1.3
	c-0.9,0-1.7-0.3-2.5-0.7l-0.5,2.2c0.9,0.5,1.8,0.7,2.8,0.7c2.7,0,4-1.7,4-3.6C211.9,33.9,211.1,32.9,209.3,32.1z"/>
<polygon class="st0" points="4.6,6.8 5.7,7.8 6.9,6.6 5.7,5.5 4.8,6.5 3.6,5.5 2.5,6.8 3.7,7.8 "/>
<path class="st0" d="M27.3,13.9c-0.5-0.3-0.9-0.7-1.1-1.3c-0.4-1.1-0.6-1.7-0.7-1.8c-0.2-0.6-0.8-1-1.4-1c-0.6,0-1.1,0.3-1.4,0.7
	c-0.1,0.1-0.5,0.6-1.1,1.5c-0.3,0.5-0.7,0.9-1.2,1.2h-7.2l-0.2-4.1l0.5-0.5c-0.5-0.9-0.7-2-0.7-3l-2.2,1.8l0.8,5.8H8.2
	c-0.2,0-0.5-0.1-0.7-0.2c-0.2-0.3-0.4-0.6-0.3-0.9L6.9,8.8l-1.4,1.3l0.1,0.7c-1.1,0.6-2.1,1.3-2.9,2.1c-0.3,1.8-0.5,2.8-0.6,3V16
	c1.4,0.8,2.3,1.3,2.7,1.5c0.1,0,0.4-0.2,0.8-0.7l0.7-0.9l0.4,1.6c0.2,0.5,0.7,0.9,1.2,0.9h13.1c0.4-0.1,0.7-0.2,1-0.5
	c0.7,0.6,1.5,1.1,2.4,1.4c0.4,0,0.8-0.3,1.1-1l1.9-3.6l0.3-0.5C27.6,14.2,27.5,14,27.3,13.9z M5.5,14.3c-0.5-0.3-1-0.6-1.6-0.8
	c0.5-0.4,1.2-0.8,1.8-1l0.2,1.4L5.5,14.3z M25,14.7c-0.7-0.4-1.4-0.9-2-1.5c0.3-0.5,0.6-0.8,0.9-0.8s0.6,0.3,0.8,0.8
	c0.1,0.4,0.2,0.9,0.2,1.3L25,14.7z"/>
<path class="st0" d="M50,5.7l-2.2,1.8l0.8,5.8h-5.2c0.5-0.5,1-0.9,1.6-1.3l0.1-0.1c0-0.1,0-0.1-0.1-0.2c-0.3-0.6-0.8-1.2-1.4-1.5
	c-0.6-0.4-1.3-0.6-2-0.6c-1-0.1-2,0.3-2.7,1c-0.1,0.1-0.1,0.1-0.1,0.2c-0.1,0.5-0.1,1-0.1,1.5c0.8,0.1,1.5,0.5,2,1h-8.2
	c-0.3,0-0.6,0-0.9-0.2c-0.2-0.3-0.3-0.7-0.2-1l-0.1-6.5L29.2,7l0.2,9.6c0,0.4,0.2,0.8,0.4,1.2c0.2,0.4,0.6,0.6,1,0.6h8.8
	c0.3,0,0.6-0.1,0.8-0.3c0.3-0.1,0.5-0.4,0.6-0.7c0.3,0.6,1.1,0.9,2.5,0.9h6.8l0.1-1.5v-0.4v-0.1c0,0.1,0-0.3-0.1-1.2l-0.3-6.1
	l0.5-0.5C50.2,7.8,50,6.7,50,5.7z M41.7,12.7c-0.3-0.4-0.8-0.8-1.3-1.1c0.3-0.1,0.6-0.2,0.9-0.2c0.5,0,0.9,0.1,1.3,0.4
	C42.3,12.1,42,12.4,41.7,12.7z"/>
<path class="st0" d="M52.1,7.3l0.7,11.9c0.5-0.5,1-1,1.4-1.6c0.4-0.8,0.7-1.7,0.6-2.6l-0.4-9.5L52.1,7.3z"/>
<path class="st0" d="M68.7,14.1c-1.2-0.1-1.9-0.3-1.9-0.5c0-0.4,0.3-0.8,1-1.3c0.5-0.4,1-0.6,1.6-0.6c0.2,0,0.5,0.1,0.6,0.2
	c0.1,0.1,0.3,0.2,0.5,0.2c0.3,0,0.4-0.2,0.4-0.7c0-1.7-0.4-2.6-1.1-2.6c-0.9,0-2.1,0.8-3.5,2.5s-2,2.9-2,3.8c0,0.5,0.3,0.8,0.8,1
	c0.6,0.2,1.1,0.3,1.7,0.4c0.5,0.1,1,0.1,1.5,0.3c-0.5,0.3-1.1,0.5-1.7,0.7c-0.6,0.2-1.2,0.3-1.8,0.3c-0.7,0-1.4-0.1-2-0.4
	c-0.6-0.2-1.1-0.7-1.3-1.4c-0.1-0.3-0.1-0.7-0.1-1c0-0.3,0-0.5,0-0.8c0-0.3,0.1-0.6,0.1-0.8c0-0.1,0-0.2-0.1-0.3l-0.2-0.1
	c-0.3,0-0.6,0.5-0.8,1.4c-0.2,0.6-0.3,1.2-0.4,1.9c0,0.5,0,0.9,0,1.1c0,2.5,1.5,3.7,4.5,3.7c1.1,0,2.2-0.3,3.2-0.8
	c1-0.5,1.8-1.2,2.6-2c0.3-0.4,0.5-0.9,0.6-1.5c0.2-0.5,0.2-1.1,0.3-1.6c0-0.2-0.1-0.5-0.2-0.7C70.3,14.2,69.5,14,68.7,14.1z"/>
<polygon class="st0" points="65.6,23.8 64.5,22.8 63.4,23.9 64.5,25 65.7,23.9 66.8,24.9 67.9,23.8 66.7,22.6 "/>
<polygon class="st0" points="87.4,20.7 86.2,19.7 85.1,20.9 86.3,21.9 87.2,20.9 88.3,21.9 89.5,20.7 88.3,19.6 "/>
<path class="st0" d="M87.5,11.2c0.5,0.6,0.9,1.3,1.2,2H79c-0.1-0.7-0.3-1.5-0.6-2.2c-0.8-1.7-1.4-2.5-1.8-2.5c-0.3,0-0.6,0.3-1,1
	C75.3,10,75.1,10.5,75,11c0,0.1,0.1,0.2,0.2,0.3c0,0,0,0,0,0c0.2-0.1,0.4-0.2,0.6-0.3c0.2,0,0.4,0.3,0.8,1c0.2,0.4,0.4,0.9,0.5,1.4
	c-0.6,0.2-1.3,0.3-1.9,0.3c-0.8,0-1.6-0.2-2.4-0.4l-0.1,0.1c0,0.1,0,0.2-0.1,0.2c0,1.3,0,2.7,0.2,4c0.1,0.6,0.6,0.9,1.5,0.9h2.1
	c0.8,0.1,1.7-0.1,2.4-0.4c0.1,0.2,0.3,0.4,0.5,0.4h11.1v-5.1c-0.1-1.3-0.3-2.6-0.8-3.9L87.5,11.2z"/>
<path class="st0" d="M93.3,5.8l-0.1,0.6c1.2-0.7,1.9-1.2,2.3-1.3l0.3-0.8l0,0h-0.1c-0.3,0.2-0.7,0.3-1.1,0.3c-0.3,0-0.5-0.1-0.8-0.2
	c0.1-0.2,0.3-0.4,0.4-0.5h0.1c0.2,0.1,0.3,0.1,0.4,0.2c0.2-0.2,0.3-0.4,0.4-0.7c0-0.3-0.2-0.4-0.5-0.4c-0.2,0-0.4,0.1-0.6,0.2
	c-0.2,0.3-0.5,0.5-0.6,0.8c-0.2,0.3-0.4,0.6-0.4,1l0,0c0.3,0.2,0.6,0.3,0.9,0.4C93.7,5.4,93.5,5.6,93.3,5.8z"/>
<path class="st0" d="M98.2,8c-0.2-0.9-0.3-1.8-0.3-2.8l-2.2,1.5c0.1,0.3,0.1,0.6,0.1,0.9c0,0.7-0.1,1.3-0.2,2
	c-0.5-0.6-1.1-1.2-1.9-1.9c-1-1-1.7-1.5-2-1.5c-0.1,0-0.3,0.3-0.5,1C91.1,7.6,91,8,90.9,8.5c0,0.1,0.2,0.4,0.7,0.8
	c0.3,0.3,0.6,0.5,0.9,0.7h0.1l0.1-0.5c0.7,0.6,1.4,1.1,2,1.8c-0.3,0.5-0.8,0.9-1.2,1.2c-0.5,0.4-1,0.6-1.5,0.8
	c-0.1-0.1-0.2-0.1-0.3-0.1h-0.1l-0.1,0.1l0.1,4.2c0,0.6,0.4,0.9,1,0.9h4.7c0.2,0,0.3-0.1,0.4-0.4c0.1-0.2,0.1-0.4,0.1-0.6v-2.9
	c-0.1-1.2-0.5-2.4-1.3-3.4c0.5-0.8,0.9-1.7,0.9-2.6L98.2,8z M95.5,13.4c-0.4,0-0.8-0.1-1.2-0.2c0.5-0.3,1-0.7,1.5-1.1
	c0.3,0.4,0.6,0.7,0.8,1C96.3,13.3,95.9,13.4,95.5,13.4z"/>
<path class="st0" d="M99.6,7.3l0.7,11.9c0.5-0.5,1-1,1.4-1.6c0.4-0.8,0.6-1.7,0.6-2.6l-0.4-9.5L99.6,7.3z"/>
<path class="st0" d="M115.8,13.2c-0.1-0.8-0.3-1.5-0.6-2.3c-0.3-0.8-1-1.2-1.8-1.2c-0.5,0-1,0.4-1.5,1.1c-0.4,0.6-0.7,1.1-1,1.7
	c-0.3-0.1-0.6-0.1-0.9-0.1c-0.6,0-1.1,0.2-1.6,0.6c-0.5,0.3-0.7,0.9-0.8,1.4c0,0.1,0.1,0.7,0.2,1.6l0.4,3.1c0.2,1.9,0.4,3.3,0.6,4.3
	h0.1c0.7-0.5,1.2-1.3,1.3-2.2c0-0.5-0.1-1-0.1-1.4l-0.2-1.5c0.2-0.3,0.5-0.5,0.9-0.4c0.6,0.1,1.2,0.4,1.6,0.9
	c0.7,0.6,1.1,0.9,1.3,0.9c0.2,0,0.3-0.1,0.4-0.3l2.4-3.2c-0.2-0.5-0.3-1-0.4-1.5C116,14.2,115.9,13.7,115.8,13.2z M114.1,14.5
	c0,0.2,0,0.4-0.1,0.6l-1.9-1.9c0.4-0.5,0.8-0.8,1.1-0.8c0.5,0,0.8,0.5,0.8,1.6V14.5z"/>
<path class="st0" d="M117.7,7.3l0.7,11.9c0.5-0.5,1-1,1.4-1.6c0.4-0.8,0.7-1.7,0.6-2.6l-0.4-9.5L117.7,7.3z"/>
<polygon class="st0" points="132.5,7 133.7,8 134.8,6.8 133.6,5.7 132.7,6.7 131.5,5.7 130.5,7 131.6,8 "/>
<polygon class="st0" points="140,8.5 141.2,9.5 142.3,8.3 141.1,7.2 140.2,8.3 139,7.2 137.9,8.5 139.1,9.5 "/>
<path class="st0" d="M151.8,11.8c0.4,0.5,0.7,1.1,0.9,1.7c-0.3,0-0.7-0.1-1-0.3c-0.3-0.1-0.6-0.4-0.8-0.7l-0.2-0.4
	c-0.1-0.2-0.2-0.3-0.2-0.3c-0.2,0.3-0.4,0.6-0.6,0.9c-0.2,0.4-0.6,0.6-1,0.6c-0.5,0-1-0.3-1.2-0.7l-0.5-0.8c-0.2,0.3-0.4,0.7-0.6,1
	c-0.3,0.3-0.7,0.4-1.1,0.4h-3.1c-0.4,0-0.8-0.1-1.1-0.4c-0.3-0.3-0.4-0.6-0.4-1c0-0.2,0-0.4,0.1-0.6c0-0.2,0.1-0.4,0.1-0.6
	c0,0,0-0.1-0.1-0.1c-0.4,0.2-0.8,0.4-1.2,0.6c0,1.3-0.7,2-2.1,2h-2.3v-0.1c0-0.9-0.2-1.7-0.5-2.5c-0.4-1.1-0.9-1.6-1.6-1.6
	c-0.3,0-0.8,0.4-1.4,1.1c-0.4,0.4-0.7,1-0.9,1.6c0,0.4,0.3,0.9,1,1.5h-3.7c-0.1-0.7-0.3-1.5-0.6-2.2c-0.8-1.7-1.4-2.5-1.8-2.5
	c-0.3,0-0.6,0.3-1,1c-0.3,0.4-0.5,0.9-0.6,1.4c0,0.1,0.1,0.2,0.2,0.3c0,0,0,0,0,0c0.2-0.1,0.4-0.2,0.6-0.3c0.2,0,0.4,0.3,0.8,1
	c0.2,0.4,0.4,0.9,0.5,1.4c-0.6,0.2-1.3,0.3-1.9,0.3c-0.8,0-1.6-0.2-2.4-0.4l-0.1,0.1c0,0.1,0,0.2-0.1,0.2c0,1.3,0,2.7,0.2,4
	c0.1,0.6,0.6,0.9,1.5,0.9h2.1c0.8,0.1,1.7-0.1,2.4-0.4c0.1,0.2,0.3,0.4,0.5,0.4h10.2c0.3,0,0.5-0.1,0.8-0.3c0.3-0.2,0.5-0.4,0.5-0.6
	c0.2,0.2,0.4,0.4,0.6,0.6c0.2,0.1,0.5,0.2,0.8,0.2h4.8c0.5,0,1.1-0.2,1.4-0.6c0.4,0.4,1,0.7,1.6,0.6c0.6,0.1,1.2-0.2,1.6-0.6
	c0.4,0.3,0.8,0.5,1.3,0.6h2.2v-5.1c-0.1-1.1-0.3-2.2-0.7-3.2L151.8,11.8z M132.5,11.8c0-0.1,0-0.3,0.1-0.4c0.1-0.1,0.2-0.2,0.3-0.2
	c0.5,0,0.8,0.7,1,2C133,12.8,132.5,12.4,132.5,11.8L132.5,11.8z"/>
<path class="st0" d="M162.5,8c-0.2-0.9-0.3-1.8-0.3-2.8l-2.2,1.5C160,7,160,7.3,160,7.6c0,0.7-0.1,1.3-0.2,2
	c-0.5-0.6-1.1-1.2-1.8-1.9c-1-1-1.7-1.5-2-1.5c-0.1,0-0.3,0.3-0.5,1c-0.1,0.4-0.2,0.8-0.3,1.2c0,0.1,0.2,0.4,0.7,0.8
	c0.3,0.3,0.6,0.5,1,0.7h0l0.1-0.5c0.7,0.5,1.4,1.1,2,1.8c-0.7,0.9-1.7,1.6-2.8,2c-0.1-0.1-0.2-0.1-0.3-0.1h-0.1l-0.1,0.1l0.1,4.2
	c0,0.6,0.4,0.9,1,0.9h4.7c0.2,0,0.3-0.1,0.4-0.4c0.1-0.2,0.1-0.4,0.1-0.6v-2.9c-0.1-1.2-0.5-2.4-1.3-3.4c0.5-0.8,0.8-1.7,0.9-2.6
	L162.5,8z M159.7,13.4c-0.4,0-0.8-0.1-1.2-0.2c0.5-0.3,1.1-0.7,1.5-1.1l0.8,1C160.5,13.4,160.1,13.4,159.7,13.4L159.7,13.4z"/>
<path class="st0" d="M171.2,11.4c-0.8,1.1-1.4,1.9-1.8,2.5c0.9,0.8,1.6,1.7,2.1,2.7c-0.5,0.8-1.2,1.6-2,2.1c-0.8,0.6-1.7,0.9-2.7,1
	h-0.8l-0.1,0.1c0,0.3,0.5,0.7,1.6,1.2c0.7,0.4,1.4,0.7,2.2,0.8h0.1c1-0.3,1.8-1,2.3-1.9c0.6-0.9,0.9-1.9,0.9-3c0-1-0.2-2-0.5-3
	C172.3,13,171.9,12.1,171.2,11.4z"/>
<path class="st0" d="M180.2,10.9c-0.3-0.8-0.7-1.5-1.2-2.1c-0.1-0.2-0.3-0.3-0.5-0.3c-0.3,0-0.6,0.3-1,1c-0.3,0.4-0.5,0.9-0.5,1.4
	c0,0.2,0.1,0.3,0.2,0.3c0.1,0,0.2,0,0.3-0.1c0.1-0.1,0.2-0.1,0.3-0.2c0.2,0,0.4,0.3,0.8,1c0.2,0.4,0.4,0.9,0.5,1.4
	c-0.6,0.2-1.3,0.3-1.9,0.3c-0.4,0-0.8-0.1-1.2-0.2l-1.2-0.3h-0.1c-0.1,0-0.1,0.1-0.1,0.3c0,1.7,0,3,0.1,3.9c0,0.5,0.4,0.8,0.8,0.9
	c0.5,0.1,0.9,0.1,1.4,0.1h1.3c0.7,0.1,1.5,0,2.2-0.3c0.4-0.3,0.6-1,0.6-2.1c0-1.3,0-2.2-0.1-2.6C180.8,12.5,180.6,11.7,180.2,10.9z"
	/>
<path class="st0" d="M206.1,5.7l-2.2,1.8l0.8,5.8h-3.4c-0.3-0.9-0.8-1.8-1.5-2.5c-0.6-0.6-1.4-1.2-2.2-1.6l-1.7-0.9
	c1.4-0.5,2.9-0.8,4.5-0.8l1.1-2c-1.2,0-2.4,0.2-3.6,0.6c-1.2,0.3-2.3,0.8-3.4,1.4l0.2,2.5c0,0.1,0.2,0.3,0.8,0.7
	c0.3,0.2,0.6,0.4,1,0.6l0,0l0,0l-0.1-0.4l0.1-0.1c0.7,0.3,1.3,0.6,1.9,1.1c0.6,0.4,1.1,0.9,1.5,1.5h-14.5c-0.3,0-0.6,0-0.9-0.2
	c-0.2-0.3-0.3-0.7-0.2-1L184,5.6L182.2,7l0.3,9.5c0,0.4,0.2,0.8,0.4,1.2c0.2,0.4,0.6,0.6,1,0.6h22.7l0.1-1.5v-0.4v-0.1
	c0,0.1,0-0.3-0.1-1.2l-0.3-6.1l0.5-0.5C206.3,7.8,206.1,6.7,206.1,5.7z"/>
<path class="st0" d="M210.5,5.5l-2.3,1.8l0.7,11.9c0.5-0.5,1-1,1.4-1.6c0.4-0.8,0.6-1.7,0.6-2.6L210.5,5.5z"/>
<path class="st1" d="M255,42.9V15.4c0-8.3-4.5-15.1-10.1-15.1h-17.6c-5.6,0-10.1,6.8-10.1,15.1v27.7c0.2,0,0.4,0,0.6,0l0,0
	c3.9-0.2,7.8-4,7.8-8.8l-0.2,0.2v-0.2h18.2c0-5-2.7-9.7-6.3-11.2l-0.9-0.3c-0.6-0.1-1.1-0.2-1.7-0.2H226h0.1V11.5h20.8l0.1,23.1
	c0,0-0.2,9.5,8,8.6V42.9z M219.6,40.8l0.1-0.7h0.4L219.6,40.8z M222.7,37.5v-0.5h0.5L222.7,37.5z"/>
<g class="st2">
	<path class="st3" d="M227.4,32.9v-6.1h1v2.7l2.1-2.7h1.4l-1.9,2.4l2,3.8h-1.3l-1.4-2.9l-0.8,1v1.9H227.4z"/>
	<path class="st3" d="M232.4,32.9v-6.1h1.5l0.9,4.2l0.9-4.2h1.5v6.1h-0.9v-4.8l-1,4.8h-1l-1-4.8v4.8H232.4z"/>
	<path class="st3" d="M238,30.9l1-0.1c0.1,0.4,0.2,0.7,0.4,0.9c0.2,0.2,0.4,0.3,0.7,0.3c0.3,0,0.6-0.1,0.7-0.3
		c0.2-0.2,0.2-0.4,0.2-0.6c0-0.1,0-0.3-0.1-0.4c-0.1-0.1-0.2-0.2-0.4-0.3c-0.1,0-0.4-0.1-0.8-0.3c-0.5-0.2-0.9-0.4-1.1-0.6
		c-0.3-0.3-0.5-0.8-0.5-1.2c0-0.3,0.1-0.6,0.2-0.9s0.4-0.5,0.6-0.6c0.3-0.1,0.6-0.2,1-0.2c0.6,0,1.1,0.2,1.4,0.5
		c0.3,0.3,0.5,0.8,0.5,1.4l-1,0.1c0-0.3-0.1-0.5-0.3-0.7s-0.4-0.2-0.6-0.2c-0.3,0-0.5,0.1-0.7,0.2c-0.1,0.1-0.2,0.2-0.2,0.4
		c0,0.1,0,0.3,0.2,0.4c0.1,0.1,0.4,0.3,0.9,0.4c0.5,0.1,0.9,0.3,1.1,0.4s0.4,0.4,0.6,0.6c0.1,0.3,0.2,0.6,0.2,1c0,0.4-0.1,0.7-0.2,1
		s-0.4,0.5-0.7,0.7c-0.3,0.1-0.7,0.2-1.1,0.2c-0.6,0-1.1-0.2-1.5-0.5C238.3,32.1,238.1,31.6,238,30.9z"/>
</g>
</svg>
